<svg xmlns="http://www.w3.org/2000/svg" width="23" height="22" viewBox="0 0 23 22" fill="none"><g id="icon-worldwide.svg" clip-path="url(#clip0_334_39)"><path id="Path 60" d="M11.4499 -1.27591e-05C10.4601 -0.0103307 9.47339 0.113005 8.51656 0.366654C8.27009 0.419346 8.0255 0.480493 7.78323 0.549987C6.18399 1.12838 4.74064 2.06969 3.56656 3.29999L3.1999 3.84999C1.70423 5.62279 0.80723 7.823 0.637071 10.1362C0.466912 12.4494 1.03231 14.7572 2.25246 16.7298C3.47261 18.7023 5.28507 20.2387 7.43082 21.1194C9.57657 22.0001 11.9458 22.18 14.1999 21.6333L15.1166 21.45C16.7158 20.8716 18.1591 19.9303 19.3332 18.7L19.6999 18.15C21.0608 16.5591 21.9395 14.6129 22.2327 12.54C22.5259 10.4671 22.2214 8.35352 21.3551 6.44762C20.4888 4.54171 19.0966 2.92261 17.342 1.7805C15.5874 0.638388 13.5433 0.0206974 11.4499 -1.27591e-05ZM19.1499 17.2333C18.4402 16.923 17.7039 16.6775 16.9499 16.5C17.3372 14.9413 17.522 13.3392 17.4999 11.7333H21.5332C21.4157 13.812 20.6459 15.8007 19.3332 17.4167L19.1499 17.2333ZM18.4166 17.9667C18.029 18.4328 17.5994 18.8624 17.1332 19.25L16.2166 19.8L15.2999 20.1667L14.3832 20.5333C15.2698 19.5796 15.9556 18.4573 16.3999 17.2333C17.155 17.4068 17.8917 17.6523 18.5999 17.9667H18.4166ZM7.41656 20.1667L6.68323 19.8C6.31656 19.8 6.13323 19.4333 5.76656 19.25C5.25138 18.8532 4.76153 18.4246 4.2999 17.9667C5.00806 17.6523 5.74478 17.4068 6.4999 17.2333C6.88939 18.4426 7.51226 19.5638 8.33323 20.5333L7.78323 20.1667H7.41656ZM3.7499 4.76665C4.51189 5.15068 5.31029 5.45776 6.13323 5.68332C5.68406 7.2339 5.43757 8.83611 5.3999 10.45H1.36656C1.48405 8.37134 2.25387 6.38264 3.56656 4.76665H3.7499ZM4.2999 4.03332C4.74539 3.55835 5.23666 3.12849 5.76656 2.74999L6.68323 2.19999L7.41656 1.83332H7.5999L8.33323 1.46665C7.51226 2.43622 6.88939 3.55738 6.4999 4.76665C5.74478 4.59321 5.00806 4.34764 4.2999 4.03332ZM15.2999 1.83332C15.6666 1.83332 15.9721 1.95554 16.2166 2.19999C16.5832 2.19999 16.7666 2.56665 16.9499 2.74999C17.3166 2.74999 17.4999 3.11665 17.8666 3.29999L18.5999 3.84999C17.8985 4.2272 17.1616 4.53424 16.3999 4.76665C16.0104 3.55738 15.3875 2.43622 14.5666 1.46665L15.2999 1.83332ZM10.8999 5.49999C9.72968 5.49035 8.56314 5.36755 7.41656 5.13332C8.33323 2.93332 9.43323 1.46665 11.0832 1.09999L10.8999 5.49999ZM7.23323 6.04999C8.44075 6.29031 9.6687 6.4131 10.8999 6.41665V10.45H6.4999C6.497 8.966 6.6818 7.4876 7.0499 6.04999H7.23323ZM10.8999 11.55V15.5833C9.6687 15.5869 8.44075 15.7097 7.23323 15.95C6.80316 14.5204 6.55674 13.0418 6.4999 11.55H10.8999ZM10.8999 16.5V20.9C9.43323 20.7167 8.33323 19.0667 7.41656 16.8667C8.62318 16.6204 9.85173 16.4975 11.0832 16.5H10.8999ZM11.9999 16.5C13.1701 16.5096 14.3367 16.6324 15.4832 16.8667C14.5666 19.0667 13.2832 20.5333 11.8166 20.9L11.9999 16.5ZM15.6666 15.95C14.459 15.7097 13.2311 15.5869 11.9999 15.5833V11.55H16.3999C16.3431 13.0418 16.0966 14.5204 15.6666 15.95ZM11.9999 10.45V6.41665C13.2311 6.4131 14.459 6.29031 15.6666 6.04999C16.0966 7.47962 16.3431 8.95815 16.3999 10.45H11.9999ZM11.9999 5.49999V1.09999C13.2832 1.28332 14.5666 2.93332 15.4832 5.13332C14.2766 5.37962 13.0481 5.50248 11.8166 5.49999H11.9999ZM5.3999 11.55C5.43757 13.1639 5.68406 14.7661 6.13323 16.3167C5.24756 16.5302 4.38716 16.8375 3.56656 17.2333C2.25387 15.6173 1.48405 13.6286 1.36656 11.55H5.3999ZM17.3166 10.45C17.3387 8.84407 17.1538 7.242 16.7666 5.68332C17.5895 5.45776 18.3879 5.15068 19.1499 4.76665C20.4626 6.38264 21.2324 8.37134 21.3499 10.45" fill="#1D1D1F"></path></g><defs><clipPath id="clip0_334_39"><rect width="22" height="22" fill="white" transform="translate(0.450195)"></rect></clipPath></defs></svg>